<svg viewBox="0 0 65 65" xmlns="http://www.w3.org/2000/svg">
  <circle style="fill:#383d44;" cx="32.5" cy="32.5" r="32.5" />
  <path style="fill:#ffffff;"
    d="M54.39,16.13a1.71,1.71,0,0,0-1.51.92A1.64,1.64,0,0,0,53,18.78a17.16,17.16,0,0,1,2.85,5.95,13.63,13.63,0,0,1-4,13.08,13.88,13.88,0,0,1-9.27,3.52,13.21,13.21,0,0,1-4.21-.67,17.55,17.55,0,0,1-5-2.75A42.56,42.56,0,0,1,29.74,35c-1.85-1.61-3.6-3.13-5.44-3.74a5.81,5.81,0,0,0-1.87-.3,6.15,6.15,0,0,0-6.1,7.59c.5,2.06.47,2,2.16,4.13l.11.14a4.88,4.88,0,0,0,.66.69,1.54,1.54,0,0,0,1,.4,1.73,1.73,0,0,0,1.32-2.78l-.49-.62c-1.42-1.74-1.16-1.44-1.48-2.75a3,3,0,0,1,.83-2.69,3.11,3.11,0,0,1,2.77-.59,16.2,16.2,0,0,1,4.29,3.09,36.64,36.64,0,0,0,5.33,4l0,0a19.6,19.6,0,0,0,4.4,2.22,16.73,16.73,0,0,0,5.28.85,17.31,17.31,0,0,0,11.56-4.42,17.05,17.05,0,0,0,5-16.38,20.26,20.26,0,0,0-3.38-7.09A1.68,1.68,0,0,0,54.39,16.13Z" />
  <path style="fill:#ffffff;"
    d="M9.15,40.27a13.63,13.63,0,0,1,4-13.08,13.86,13.86,0,0,1,9.27-3.52,13.21,13.21,0,0,1,4.21.67,20.14,20.14,0,0,1,6.46,3.89h0c.59.48,1.18,1,1.74,1.48l.4.35c1.86,1.61,3.6,3.14,5.45,3.75a5.81,5.81,0,0,0,1.87.3,6.35,6.35,0,0,0,4.26-1.6,6.42,6.42,0,0,0,1.84-6c-.5-2.06-.26-1.77-1.93-3.82l-.13-.17a4.35,4.35,0,0,0-.65-.69,1.57,1.57,0,0,0-2.17.08,1.69,1.69,0,0,0-.18,2.3c.17.21.33.42.5.62,1.42,1.74.94,1.16,1.26,2.47A3,3,0,0,1,44.54,30a3.07,3.07,0,0,1-2.77.59,16.2,16.2,0,0,1-4.29-3.09l-.66-.58a39,39,0,0,0-3.35-2.71s0,0,0,0a.47.47,0,0,1-.09-.06L33.24,24h0a20.11,20.11,0,0,0-5.5-2.91,16.73,16.73,0,0,0-5.28-.85,17.29,17.29,0,0,0-11.56,4.42,17.05,17.05,0,0,0-5,16.38,20.18,20.18,0,0,0,3.38,7.09A1.69,1.69,0,0,0,12.11,48,1.64,1.64,0,0,0,12,46.22,17.16,17.16,0,0,1,9.15,40.27Z" />
  <path style="fill:#ffffff;"
    d="M15.73,42.15a.28.28,0,0,0-.38-.13L13,43.2a.28.28,0,0,0-.12.38c.27.54.56,1.06.9,1.61a1.45,1.45,0,0,0,.9.65l.3,0a1.42,1.42,0,0,0,.77-.23l.33-.23a1.35,1.35,0,0,0,.42-1.84C16.23,43.08,16,42.62,15.73,42.15Z" />
  <path style="fill:#ffffff;"
    d="M15,33.48a7.35,7.35,0,0,1,2.54-2.91.28.28,0,0,0,.07-.39L16.1,28a.28.28,0,0,0-.39-.08,10.59,10.59,0,0,0-3.62,4.18.26.26,0,0,0,0,.21.28.28,0,0,0,.14.16l2.36,1.12a.25.25,0,0,0,.12,0h.09A.31.31,0,0,0,15,33.48Z" />
  <path style="fill:#ffffff;"
    d="M14.27,35.51a.23.23,0,0,0-.19-.1l-2.58-.3a.3.3,0,0,0-.21,0,.31.31,0,0,0-.11.19,12.65,12.65,0,0,0-.07,1.36,13.51,13.51,0,0,0,.39,3.19c.07.27.15.53.22.79a.29.29,0,0,0,.28.2h.08l2.49-.76a.25.25,0,0,0,.16-.14.26.26,0,0,0,0-.21q-.11-.32-.18-.63a10.23,10.23,0,0,1-.3-2.43,8.1,8.1,0,0,1,.05-1A.26.26,0,0,0,14.27,35.51Z" />
  <path style="fill:#ffffff;"
    d="M43.61,35.54a8.06,8.06,0,0,1-3.8-.24l-.12,0a.28.28,0,0,0-.35.18L38.5,37.9a.28.28,0,0,0,0,.22.25.25,0,0,0,.16.14l.18.06a10.77,10.77,0,0,0,3.32.51,12,12,0,0,0,2-.17.28.28,0,0,0,.23-.32l-.43-2.57A.28.28,0,0,0,43.61,35.54Z" />
  <path style="fill:#ffffff;"
    d="M52.8,31.49a.28.28,0,0,0,.13,0,.25.25,0,0,0,.14-.16,12.11,12.11,0,0,0,.63-3.8,12.6,12.6,0,0,0-.11-1.62.3.3,0,0,0-.32-.24L50.69,26a.29.29,0,0,0-.24.32,9.39,9.39,0,0,1,.08,1.19,8.56,8.56,0,0,1-.46,2.77.28.28,0,0,0,.18.36l2.46.84Z" />
  <path style="fill:#ffffff;"
    d="M35.78,36.86a.28.28,0,0,0,.15,0,.26.26,0,0,0,.24-.13l1.39-2.2a.31.31,0,0,0,0-.21.27.27,0,0,0-.13-.18,30.82,30.82,0,0,1-3.56-2.78.29.29,0,0,0-.4,0l-1.69,2a.28.28,0,0,0,0,.4A33.21,33.21,0,0,0,35.78,36.86Z" />
  <path style="fill:#ffffff;"
    d="M49,32.35a8.12,8.12,0,0,1-3.07,2.46.29.29,0,0,0-.15.16.33.33,0,0,0,0,.22l1.11,2.35a.28.28,0,0,0,.26.17.27.27,0,0,0,.12,0,11.42,11.42,0,0,0,4.26-3.43.3.3,0,0,0-.06-.4l-2.08-1.56A.29.29,0,0,0,49,32.35Z" />
  <path style="fill:#ffffff;"
    d="M29,27.7a14.77,14.77,0,0,0-1.76-.82.28.28,0,0,0-.37.17l-.93,2.42a.29.29,0,0,0,.16.37,10.1,10.1,0,0,1,1.37.64A15.57,15.57,0,0,1,29.71,32a.32.32,0,0,0,.18.06.25.25,0,0,0,.22-.11l1.61-2a.31.31,0,0,0,.05-.21.26.26,0,0,0-.1-.19A20.59,20.59,0,0,0,29,27.7Z" />
  <path style="fill:#ffffff;"
    d="M19.4,26.3l-.71.2a.29.29,0,0,0-.17.14.33.33,0,0,0,0,.22l.79,2.48a.28.28,0,0,0,.14.16.33.33,0,0,0,.13,0l.09,0,.51-.14a9,9,0,0,1,3.49-.16A.28.28,0,0,0,24,29l.35-2.58a.27.27,0,0,0-.24-.32A12.42,12.42,0,0,0,19.4,26.3Z" />
  <path style="fill:#ffffff;"
    d="M49.79,24a.26.26,0,0,0,.16.15.18.18,0,0,0,.1,0l.11,0,2.39-1.05a.29.29,0,0,0,.14-.38,10.46,10.46,0,0,0-.9-1.64,1.47,1.47,0,0,0-1-.65,1.5,1.5,0,0,0-1.22.37l-.17.14a1.42,1.42,0,0,0-.23,1.85A7.93,7.93,0,0,1,49.79,24Z" />
</svg>
