<svg viewBox="0 0 65 65" xmlns="http://www.w3.org/2000/svg">
  <circle style="fill:#383d44;" cx="32.5" cy="32.5" r="32.5" />
  <path style="fill:#ffffff;"
    d="M27.56,11.13a1.93,1.93,0,0,0-1.91,1.65L19.52,52.09A2,2,0,0,0,20,53.65a1.94,1.94,0,0,0,3.39-1l6.12-39.31A1.92,1.92,0,0,0,29,11.81,2,2,0,0,0,27.56,11.13Z" />
  <path style="fill:#ffffff;"
    d="M39.42,12.32a1.93,1.93,0,0,0-1.92-1.65,2,2,0,0,0-1.92,2.24l6.07,39.82a1.88,1.88,0,0,0,1.92,1.59A1.92,1.92,0,0,0,45,53.65a2,2,0,0,0,.44-1.55Z" />
  <rect style="fill:#ffffff;" x="30.59" y="20.65" width="3.88" height="6.04" rx="0.33" ry="0.33" />
  <rect style="fill:#ffffff;" x="30.59" y="30.32" width="3.88" height="6.04" rx="0.33" ry="0.33" />
  <rect style="fill:#ffffff;" x="30.59" y="38.91" width="3.88" height="6.04" rx="0.33" ry="0.33" />
  <path style="fill:#ffffff;"
    d="M34.14,47.86H30.93a.34.34,0,0,0-.34.33v3.08a1.94,1.94,0,1,0,3.88,0V48.19A.33.33,0,0,0,34.14,47.86Z" />
  <path style="fill:#ffffff;"
    d="M32.53,11.69a1.94,1.94,0,0,0-1.94,1.94v3.08a.34.34,0,0,0,.34.33h3.21a.33.33,0,0,0,.33-.33V13.63A1.94,1.94,0,0,0,32.53,11.69Z" />
</svg>
