<svg viewBox="0 0 65 65" xmlns="http://www.w3.org/2000/svg">
  <circle style="fill:#383d44;" cx="32.5" cy="32.5" r="32.5" />
  <path style="fill:#ffffff;"
    d="M43.31,31.93a.3.3,0,0,0-.29-.24H39.94a.3.3,0,0,0-.24.12.32.32,0,0,0-.06.25l3.82,16.82H34.29c0-3,0-5.67,0-8.36V32.17a.3.3,0,0,0-.3-.3H31a.3.3,0,0,0-.3.3V48.88H21.52l1.78-7.79c.64-2.82,1.28-5.62,2-8.76a.31.31,0,0,0-.06-.26A.28.28,0,0,0,25,32H21.91a.35.35,0,0,0-.3.27l0,.17v0l-2.16,9.5-2,8.7-.35,1.51a.29.29,0,0,0,.06.25.28.28,0,0,0,.23.11H47.62a.3.3,0,0,0,.23-.11.28.28,0,0,0,.06-.25l-4.32-19Z" />
  <path style="fill:#ffffff;"
    d="M50.7,25.73H14.31a1.81,1.81,0,1,0,0,3.61H15.8v2.45a.31.31,0,0,0,.3.3h3a.3.3,0,0,0,.3-.3V29.35H45.59v2.44a.29.29,0,0,0,.3.3h3a.29.29,0,0,0,.3-.3V29.34H50.7a1.81,1.81,0,0,0,0-3.61Z" />
  <path style="fill:#ffffff;"
    d="M24,23.42h3.09a.3.3,0,0,0,.29-.23L29,16.11H30.7V23a.3.3,0,0,0,.3.3h3a.3.3,0,0,0,.3-.3V16.1H36c0,.14.07.29.11.48l.7,3.1.52,2.3.29,1.29a.31.31,0,0,0,.3.23H41a.28.28,0,0,0,.23-.11.3.3,0,0,0,.06-.26L39,12.73a.29.29,0,0,0-.29-.23H26.33a.29.29,0,0,0-.29.23L23.69,23.05a.3.3,0,0,0,.06.26A.28.28,0,0,0,24,23.42Z" />
</svg>
