<svg viewBox="0 0 65 65" xmlns="http://www.w3.org/2000/svg">
  <circle style="fill:#ffffff;" cx="32.5" cy="32.5" r="32.5" />
  <path style="fill:#1a1e23;"
    d="M52.33,27.16l.17,0h0a1.57,1.57,0,0,0,1.09-.48A1.54,1.54,0,0,0,54,25.59a1.56,1.56,0,0,0-1.5-1.53h-.06c-.06,0-.47,0-2.71-.5a.29.29,0,0,0-.34.22l-.51,2.47a.33.33,0,0,0,0,.22.31.31,0,0,0,.19.13A28.89,28.89,0,0,0,52.33,27.16Z" />
  <rect style="fill:#1a1e23;" x="16.54" y="36.87" width="3.1" height="6.26" rx="0.29" ry="0.29" />
  <path style="fill:#1a1e23;"
    d="M19.41,27.24a.29.29,0,0,0-.4.12A24.59,24.59,0,0,0,16.78,33a.29.29,0,0,0,.21.36l2.44.63h.07a.3.3,0,0,0,.15,0,.25.25,0,0,0,.13-.17,21.84,21.84,0,0,1,1.95-4.92.31.31,0,0,0-.12-.4Z" />
  <path style="fill:#1a1e23;"
    d="M52.68,18h0a.34.34,0,0,0-.13,0c-1.88,0-4.29-.66-8.07-1.87-3.6-1.14-8.08-2.57-12.77-2.57a20.2,20.2,0,0,0-12.76,4.38c-9.13,7-8.62,17-8.25,24.24a40,40,0,0,1-.05,7.24l0,.21a.53.53,0,0,0,0,.13,1.82,1.82,0,0,0,1.81,1.74h0a1.82,1.82,0,0,0,1.76-1.7.24.24,0,0,0,0-.08,43.7,43.7,0,0,0,0-7.73c-.34-6.82-.78-15.32,6.85-21.19a16.71,16.71,0,0,1,10.56-3.63c4.14,0,8.14,1.28,11.68,2.4,4.22,1.35,6.79,2,9.16,2h.2A1.82,1.82,0,0,0,54,21,1.8,1.8,0,0,0,52.68,18Z" />
  <path style="fill:#1a1e23;"
    d="M45.43,25.8h.06a.29.29,0,0,0,.16,0,.31.31,0,0,0,.13-.19l.53-2.46a.29.29,0,0,0-.22-.35c-1.79-.38-3.74-.82-5.55-1.22a.29.29,0,0,0-.34.22l-.55,2.46a.29.29,0,0,0,.22.35Z" />
  <path style="fill:#1a1e23;"
    d="M32.8,23l3.36.76h.07a.26.26,0,0,0,.15,0,.28.28,0,0,0,.13-.19l.56-2.45a.3.3,0,0,0-.22-.35l-3.44-.78a15.34,15.34,0,0,0-2.49-.22h0a.31.31,0,0,0-.3.29v2.52a.29.29,0,0,0,.29.29A11.88,11.88,0,0,1,32.8,23Z" />
  <path style="fill:#1a1e23;"
    d="M23.49,26.16h0a.3.3,0,0,0,.2-.1,9.69,9.69,0,0,1,4-2.73.31.31,0,0,0,.18-.38l-.83-2.37a.29.29,0,0,0-.37-.18A12.82,12.82,0,0,0,21.4,24a.3.3,0,0,0,0,.41l1.86,1.69A.28.28,0,0,0,23.49,26.16Z" />
  <path style="fill:#1a1e23;"
    d="M52.75,29.51l-.11,0c-4.15,0-8.16-1.28-11.69-2.41-4.22-1.34-6.79-2-9.16-2a9.23,9.23,0,0,0-5.85,2c-4.13,3.19-4.13,7.6-3.77,14.53a55.69,55.69,0,0,1,0,8.07.13.13,0,0,0,0,.06h0A1.81,1.81,0,0,0,24,51.46h0a1.81,1.81,0,0,0,1.77-1.83,60.88,60.88,0,0,0,0-8.25c-.34-6.61-.22-9.49,2.37-11.49a5.62,5.62,0,0,1,3.65-1.23c1.88,0,4.28.66,8.06,1.86,3.51,1.12,7.87,2.51,12.44,2.56a1.53,1.53,0,0,0,.42,0A1.85,1.85,0,0,0,54,32.57a1.8,1.8,0,0,0-1.24-3.06Z" />
  <path style="fill:#1a1e23;"
    d="M19.65,46.63a.3.3,0,0,0-.3-.29H16.83a.29.29,0,0,0-.29.29v3a.26.26,0,0,0,.09.18A1.55,1.55,0,0,0,18.11,51h0a1.53,1.53,0,0,0,1.44-1.15.28.28,0,0,0,.07-.17v-.13s0-.12,0-.15,0-.1,0-.09Z" />
</svg>
