<svg viewBox="-467 269 24 24" xmlns="http://www.w3.org/2000/svg">
  <path style="fill:#FFFFFF;" d="M-452.7,271.4c1.6,0.5,2.9,1.7,3.7,3.2l-3.2,3.8c0.1-0.4,0.1-0.6,0-1c0-0.3-0.2-0.6-0.3-0.9c-0.7-1.2-2.1-1.7-3.3-1.3
    L-452.7,271.4z M-457.7,279c-0.1-0.2-0.1-0.4-0.2-0.6c0-0.2,0-0.5,0-0.8l-3.2,3.8c0.6,1.2,1.5,2.3,2.3,3.4c0.2,0.3,0.4,0.5,0.6,0.7
    l4.1-4.8C-455.7,281.1-457.2,280.4-457.7,279z M-457.5,276.2l-3-2.5c-1.5,2-1.8,4.7-0.9,7.1L-457.5,276.2z M-457.9,286
    c0.5,0.7,1.1,1.4,1.5,2.2c0.4,0.7,0.7,1.4,0.9,2.1c0.1,0.3,0.2,0.7,0.6,0.7c0.3,0,0.4-0.3,0.5-0.6c0.1-0.2,0.2-0.5,0.3-0.8
    s0.2-0.5,0.3-0.8c0.4-0.8,0.9-1.6,1.4-2.3c1.1-1.6,2.5-3,3.4-4.7c1.1-2.1,1.3-4.5,0.4-6.7L-457.9,286z M-457.1,275.7l3.8-4.5
    c-0.6-0.2-1.2-0.2-1.7-0.2c-2,0-3.7,0.9-5,2.2L-457.1,275.7z"/>
</svg>
