<svg viewBox="-467 269 24 24" xmlns="http://www.w3.org/2000/svg">
  <path style="fill:#FFFFFF;" d="M-455,278.3c2,0,3.6-1.6,3.6-3.6c0-2-1.6-3.6-3.6-3.6c-2,0-3.6,1.6-3.6,3.6
  C-458.7,276.6-457.1,278.3-455,278.3 M-457.6,282c0,0-1.1,3-1.4,3.5c-0.1,0.2-0.1,0.3-0.4,0.3c-0.3,0-0.7-0.3-0.7-0.3
  s-0.2-0.1-0.1-0.4c0.2-0.7,1.3-5.1,1.6-5.9c0.3-0.9,0.9-0.9,0.9-0.9h0.6l2.1,3.6l2.1-3.6h0.8c0,0,0.3,0,0.5,0.3
  c0.2,0.3,0.3,0.7,0.3,0.7l1.4,5.4c0,0,0.1,0.4,0.1,0.5c0,0.2-0.1,0.2-0.1,0.2s-0.4,0.1-0.6,0.2c-0.4,0.1-0.5-0.3-0.5-0.3l-1.3-3.4
  l-0.2,9h-1.9l-0.3-5.1c0,0-0.1-0.1-0.2-0.1c-0.2,0-0.2,0.1-0.2,0.1l-0.3,5.1h-2L-457.6,282L-457.6,282z"/>
</svg>
