<svg viewBox="-467 269 24 24" xmlns="http://www.w3.org/2000/svg">
  <path style="fill:#FFFFFF;" d="M-446.5,275.6c0.7,0.9,1.1,2,1.4,3.2c0.2,1.3,0.1,2.5-0.3,3.7c-0.4,1.2-1.1,2.2-2,3.1
    c-0.7,0.6-1.4,1.2-2.3,1.6c0.4,1.1-0.1,2.3-1.2,2.7c-0.2,0.1-0.5,0.1-0.7,0.1c-1.1,0-2-0.9-2.1-2c-0.3,0-2.6,0-3.1,0
    c-0.1,1.1-1.1,2-2.3,1.9c-1.1-0.1-1.9-1-1.9-2c0-0.2,0-0.4,0.1-0.6c-1.6-0.5-3-1.5-4-2.9c-0.3-0.4-0.2-1.1,0.2-1.4
    c0.2-0.1,0.4-0.2,0.6-0.2c0.7,0,1-0.3,1.2-0.6c0.2-0.7,0.4-1.5,0.4-2.2c0-0.5,0.1-1.1,0.2-1.6c0.4-1.7,1.3-3.3,2.7-4.4
    c1.7-1.3,3.7-2,5.8-2c1.4,0,2.8,0.4,4.1,1C-448.4,273.6-447.3,274.5-446.5,275.6 M-450.3,286.3c1.8-0.8,3.2-2.3,3.9-4.1
    c1.6-4.9-2.6-9.2-7.3-9.2c-0.4,0-0.7,0-1.1,0.1c-2.9,0.4-5.8,2.4-6.4,5.4c-0.4,2,0.2,5.3-2.8,5.3c1,1.2,2.3,2.1,3.8,2.6
    c0.9-0.8,2.2-0.7,2.9,0.2c0.1,0.1,0.2,0.3,0.3,0.4c0.6,0,3.2,0,3.5,0c0.5-1,1.8-1.4,2.8-0.9C-450.5,286.1-450.4,286.2-450.3,286.3
    M-456,279.3c-0.6,0-1.1-0.4-1.1-1c0-0.6,0.4-1.1,1-1.1c0.6,0,1.1,0.4,1.1,1.1C-455,278.8-455.4,279.3-456,279.3L-456,279.3
    M-451.3,279.3c-0.6,0-1.1-0.4-1.1-1c0-0.6,0.4-1.1,1-1.1c0.6,0,1.1,0.4,1.1,1.1C-450.3,278.8-450.8,279.3-451.3,279.3L-451.3,279.3
    M-457.3,281.1c-0.1-0.3,0.1-0.6,0.4-0.6c0.3-0.1,0.6,0.1,0.6,0.4l0,0c0.4,1.1,1.4,1.8,2.6,1.7c1.1,0.1,2.2-0.6,2.6-1.7
    c0.1-0.3,0.5-0.4,0.7-0.2c0.2,0.1,0.3,0.3,0.3,0.5c-0.2,0.7-0.6,1.3-1.2,1.8c-0.7,0.5-1.5,0.8-2.3,0.8h-0.1
    C-455.4,283.7-456.9,282.6-457.3,281.1L-457.3,281.1z"/>
</svg>
