<?xml version="1.0" encoding="utf-8"?>
<!-- Generator: Adobe Illustrator 19.0.0, SVG Export Plug-In . SVG Version: 6.00 Build 0)  -->
<svg version="1.1" xmlns="http://www.w3.org/2000/svg" xmlns:xlink="http://www.w3.org/1999/xlink" x="0px" y="0px"
	 viewBox="-1 -1224 608 608" style="enable-background:new -1 -1224 608 608;" xml:space="preserve">
<style type="text/css">
	.st0{fill:#1D282D;}
	.st1{fill:#DC3333;}
	.st2{fill:#FBDA36;}
</style>
<path class="st0" d="M302-624c126.2,0,196.4,0,242.2-45.8S590-785.8,590-912s0-196.4-45.8-242.2c-45.8-45.8-116-45.8-242.2-45.8
	s-196.4,0-242.2,45.8C14-1108.4,14-1038.2,14-912s0,196.4,45.8,242.2S175.8-624,302-624z"/>
<path class="st1" d="M472.7-992l-0.4-0.2c-5.6-3.8-11.5-7.4-16.7-11.6c-12.4-10.3-24.6-20.9-36.8-31.3s-24.4-20.6-38.4-28.5
	c-7.8-4.6-16.3-7.8-25.2-9.5c-16.2-2.8-32.5,4.8-40.7,19c-3.2,5.8-5.3,12.2-6.2,18.8c-2.1,14.2-1,28.3,1.4,42.3
	c3.3,19,7.2,37.9,10.7,56.8c2.1,11.1,3.9,22.2,3.2,33.6c-0.2,3.9-1.1,7.7-2.4,11.4c-1.4,4.4-6,7-10.5,6c-4-0.6-7.9-1.9-11.5-3.7
	c-5.2-2.7-10.2-5.8-14.8-9.5c-13.6-11.1-27-22.6-40.4-34c-10.4-9.2-21.3-17.7-32.9-25.4c-8-5.4-16.8-9.5-26.1-12.1
	c-23.3-6.1-44,5.6-50.5,28.8c-1.4,5.1-2.2,10.3-2.6,15.5c-0.7,11.9,0,23.8,2.3,35.5c3.1,17.3,6.6,34.6,9.9,51.8
	c2.3,12.1,4.5,24.3,4.1,36.7c-0.2,6.4-1.1,12.6-6.3,17.3l19.8,34c9.5-5.7,16.2-15,18.8-25.8c3.6-13.3,3.3-26.9,1.3-40.4
	c-2.3-15.5-5.3-30.8-8.2-46.3s-6.3-30.4-7.1-45.9c-0.5-5.6,0-11.2,1.5-16.5c2.1-6.6,6.9-9.5,13.6-7.8c4,0.9,7.7,2.4,11.2,4.5
	c7.1,4.3,13.9,9.1,20.4,14.2c13.2,11,26.1,22.5,39.1,33.6c9.4,8.2,19.5,15.7,30.1,22.2c7.3,4.6,15.2,8,23.6,10.2
	c20.4,5.1,39.7-4.1,47.6-23c2-5,3.3-10.3,4.1-15.7c2.1-13.2,0.9-26.5-1.4-39.5c-3-17.5-6.6-34.9-9.9-52.3
	c-2.1-11.1-4.3-22.2-4.3-33.5c-0.1-4.8,0.4-9.6,1.4-14.3c1.6-6.9,6.3-9.7,13.2-8.3c3.8,0.7,7.5,2.1,10.9,4.1
	c6.1,3.6,12,7.5,17.5,11.9c8.5,6.7,16.7,14,24.9,20.9c12.3,10.2,24.5,20.5,37,30.4c8.3,6.5,17.6,11.7,27.5,15.4
	c7.2,2.8,14.9,3.9,22.6,3.2c5.4-0.4,10.5-2.1,15-5.1c-6.6-11.3-13-22.5-19.6-33.8C485.1-985.6,478.9-988.7,472.7-992z"/>
<polygon id="XMLID_19_" class="st2" points="535.6,-1210.3 558.9,-1167.5 601.7,-1144.2 558.9,-1120.8 535.6,-1078.1 512.2,-1120.8 
	469.5,-1144.2 512.2,-1167.5 "/>
<polygon id="XMLID_17_" class="st2" points="431.3,-1166.7 452.4,-1128.2 491,-1107.1 452.4,-1086 431.3,-1047.4 410.3,-1086 
	371.7,-1107.1 410.3,-1128.2 "/>
<polygon id="XMLID_20_" class="st2" points="522.3,-1064.7 535,-1041.5 558.2,-1028.9 535,-1016.2 522.3,-993 509.6,-1016.2 
	486.5,-1028.9 509.6,-1041.5 "/>
<path class="st0" d="M535.6-1074.6L535.6-1074.6c-1.3,0-2.5-0.7-3.1-1.8l-22.9-41.8l-41.8-22.9c-1.1-0.6-1.8-1.8-1.8-3.1
	s0.7-2.5,1.8-3.1l41.8-22.9l22.9-41.8c0.6-1.1,1.8-1.8,3.1-1.8s2.5,0.7,3.1,1.8l22.9,41.8l41.8,22.9c1.1,0.6,1.8,1.8,1.8,3.1
	s-0.7,2.5-1.8,3.1l-41.8,22.9l-22.9,41.8C538-1075.3,536.8-1074.6,535.6-1074.6z M557.3-1164.5c-0.6-0.3-1.1-0.8-1.4-1.4l-20.3-37.1
	l-20.3,37.1c-0.3,0.6-0.8,1.1-1.4,1.4l-37.1,20.3l37.1,20.3c0.6,0.3,1.1,0.8,1.4,1.4l20.3,37.1l20.3-37.1c0.3-0.6,0.8-1.1,1.4-1.4
	l37.1-20.3"/>
</svg>
